<?xml version="1.0" standalone="no"?>
<!DOCTYPE svg PUBLIC "-//W3C//DTD SVG 20010904//EN"
 "http://www.w3.org/TR/2001/REC-SVG-20010904/DTD/svg10.dtd">
<svg version="1.0" xmlns="http://www.w3.org/2000/svg"
 width="500.000000pt" height="500.000000pt" viewBox="0 0 500.000000 500.000000"
 preserveAspectRatio="xMidYMid meet">
<metadata>
Created by potrace 1.11, written by Peter Selinger 2001-2013
</metadata>
<g transform="translate(0.000000,500.000000) scale(0.100000,-0.100000)"
fill="#000000" stroke="none">
<path d="M2070 2897 c-25 -7 -62 -21 -83 -31 -55 -27 -132 -116 -153 -178 -24
-70 -24 -186 0 -256 24 -70 100 -153 174 -189 53 -26 66 -28 177 -28 113 0
123 2 180 30 l60 30 3 148 3 147 -121 0 -121 0 3 -52 3 -53 53 -3 52 -3 0 -59
c0 -56 -1 -58 -31 -69 -49 -17 -139 -13 -185 8 -131 60 -168 270 -68 381 66
73 185 91 282 41 58 -30 77 -27 107 17 l26 37 -32 27 c-18 15 -53 35 -78 43
-62 22 -194 28 -251 12z"/>
<path d="M2550 2555 l0 -345 65 0 65 0 2 226 3 225 173 -220 c96 -121 180
-222 189 -225 8 -3 35 -6 59 -6 l44 0 0 345 0 345 -65 0 -65 0 -2 -225 -3
-225 -178 225 -178 225 -55 0 -54 0 0 -345z"/>
</g>
</svg>
